<svg preserveAspectRatio="none" width="100%" height="100%" overflow="visible" style="display: block;" viewBox="0 0 18 18" fill="none" xmlns="http://www.w3.org/2000/svg">
<g id="tabler:moon">
<path id="Vector" d="M9.00013 2.25001H9.29488C8.33138 3.14529 7.71207 4.3499 7.5446 5.65443C7.37712 6.95896 7.67207 8.28094 8.37818 9.39056C9.08429 10.5002 10.1569 11.3273 11.4096 11.7281C12.6623 12.1289 14.0158 12.0781 15.2349 11.5845C14.7659 12.7129 13.9995 13.6928 13.0173 14.4197C12.0351 15.1466 10.874 15.5933 9.65781 15.7121C8.44166 15.8308 7.21608 15.6172 6.1118 15.0941C5.00752 14.5709 4.06596 13.7578 3.38757 12.7415C2.70918 11.7251 2.31939 10.5437 2.25979 9.32324C2.20019 8.10276 2.47302 6.88898 3.04916 5.8114C3.6253 4.73381 4.48315 3.83283 5.5312 3.20456C6.57925 2.57629 7.77819 2.24431 9.00013 2.24401V2.25001Z" stroke="var(--stroke-0, #6E8778)" stroke-width="1.5" stroke-linecap="round" stroke-linejoin="round"/>
</g>
</svg>
