<svg preserveAspectRatio="none" width="100%" height="100%" overflow="visible" style="display: block;" viewBox="0 0 20 20" fill="none" xmlns="http://www.w3.org/2000/svg">
<g id="fe:sunny-o">
<path id="Vector" d="M10 15C8.67392 15 7.40215 14.4732 6.46447 13.5355C5.52678 12.5979 5 11.3261 5 10C5 8.67392 5.52678 7.40215 6.46447 6.46447C7.40215 5.52678 8.67392 5 10 5C11.3261 5 12.5979 5.52678 13.5355 6.46447C14.4732 7.40215 15 8.67392 15 10C15 11.3261 14.4732 12.5979 13.5355 13.5355C12.5979 14.4732 11.3261 15 10 15ZM10 13.3333C10.8841 13.3333 11.7319 12.9821 12.357 12.357C12.9821 11.7319 13.3333 10.8841 13.3333 10C13.3333 9.11594 12.9821 8.2681 12.357 7.64298C11.7319 7.01786 10.8841 6.66667 10 6.66667C9.11594 6.66667 8.2681 7.01786 7.64298 7.64298C7.01786 8.2681 6.66667 9.11594 6.66667 10C6.66667 10.8841 7.01786 11.7319 7.64298 12.357C8.2681 12.9821 9.11594 13.3333 10 13.3333ZM9.16667 1.66667H10.8333V4.16667H9.16667V1.66667ZM1.66667 9.16667H4.16667V10.8333H1.66667V9.16667ZM15.8333 9.16667H18.3333V10.8333H15.8333V9.16667ZM9.16667 15.8333H10.8333V18.3333H9.16667V15.8333ZM15.5175 3.33333L16.6967 4.51167L14.9283 6.28L13.75 5.1L15.5175 3.33333ZM13.75 14.5117L14.9283 13.3333L16.6967 15.1008L15.5175 16.28L13.75 14.5117ZM5.10083 13.3333L6.28 14.5117L4.51167 16.28L3.33333 15.1L5.10083 13.3333ZM3.33333 4.51167L4.51167 3.33333L6.28 5.10083L5.1 6.28L3.33333 4.51167Z" fill="var(--fill-0, #6E8778)"/>
</g>
</svg>
