<svg preserveAspectRatio="none" width="100%" height="100%" overflow="visible" style="display: block;" viewBox="0 0 20 20" fill="none" xmlns="http://www.w3.org/2000/svg">
<g id="fe:sunrise">
<path id="Vector" d="M17.5 12.5H2.5C2.27899 12.5 2.06702 12.4122 1.91074 12.2559C1.75446 12.0996 1.66667 11.8877 1.66667 11.6667C1.66667 11.4457 1.75446 11.2337 1.91074 11.0774C2.06702 10.9211 2.27899 10.8333 2.5 10.8333H3.33333C3.33333 9.06522 4.03571 7.36953 5.28595 6.11929C6.5362 4.86905 8.23189 4.16667 10 4.16667C11.7681 4.16667 13.4638 4.86905 14.714 6.11929C15.9643 7.36953 16.6667 9.06522 16.6667 10.8333H17.5C17.721 10.8333 17.933 10.9211 18.0893 11.0774C18.2455 11.2337 18.3333 11.4457 18.3333 11.6667C18.3333 11.8877 18.2455 12.0996 18.0893 12.2559C17.933 12.4122 17.721 12.5 17.5 12.5ZM15 15.8333H5C4.77899 15.8333 4.56702 15.7455 4.41074 15.5893C4.25446 15.433 4.16667 15.221 4.16667 15C4.16667 14.779 4.25446 14.567 4.41074 14.4107C4.56702 14.2545 4.77899 14.1667 5 14.1667H15C15.221 14.1667 15.433 14.2545 15.5893 14.4107C15.7455 14.567 15.8333 14.779 15.8333 15C15.8333 15.221 15.7455 15.433 15.5893 15.5893C15.433 15.7455 15.221 15.8333 15 15.8333ZM5 10.8333H15C15 9.50725 14.4732 8.23548 13.5355 7.2978C12.5979 6.36012 11.3261 5.83333 10 5.83333C8.67392 5.83333 7.40215 6.36012 6.46447 7.2978C5.52678 8.23548 5 9.50725 5 10.8333Z" fill="var(--fill-0, #6E8778)"/>
</g>
</svg>
